<svg version="1.1" id="Layer_1" xmlns="http://www.w3.org/2000/svg" xmlns:xlink="http://www.w3.org/1999/xlink" x="0px" y="0px"
	 width="100%" viewBox="0 0 1024 1024" enable-background="new 0 0 1024 1024" xml:space="preserve">
<path fill="#000000" opacity="1.000000" stroke="none" 
	d="
M107.702232,433.134583 
	C96.748840,433.851013 89.573647,428.015015 83.680550,420.441284 
	C74.792221,409.018097 69.952621,395.971252 68.620674,381.451630 
	C67.320831,367.282043 67.369690,353.310364 69.899849,339.224274 
	C71.852333,328.354340 77.130249,319.633209 84.670975,312.140320 
	C87.677261,309.153076 90.512550,305.944366 94.341141,303.616974 
	C100.748741,299.721863 107.687027,300.196106 114.552254,299.782410 
	C121.550591,299.360718 121.391541,299.502960 121.723732,292.292938 
	C122.261612,280.618347 124.044334,269.235077 129.043335,258.438263 
	C134.512512,246.625961 144.096603,238.455429 154.038757,231.154388 
	C164.169037,223.715179 175.472321,217.542206 188.103775,215.093597 
	C200.710968,212.649719 213.079041,209.361755 226.343201,210.160889 
	C239.541718,210.956085 252.883148,209.244339 266.167969,208.823380 
	C270.226349,208.694794 271.855377,206.781677 271.966034,202.987885 
	C272.158783,196.380341 272.561005,189.774765 272.583282,183.167389 
	C272.611145,174.903412 272.129974,166.633484 272.321014,158.376602 
	C272.387390,155.506592 271.439575,154.332458 269.107788,153.038498 
	C260.474365,148.247574 253.418503,141.929749 249.807861,132.325592 
	C244.517502,118.253502 249.776840,106.857010 259.779541,97.718445 
	C274.540466,84.232674 289.667938,83.047546 306.648499,93.903214 
	C313.251892,98.124741 316.952728,105.055580 318.644623,112.845802 
	C320.971527,123.560112 321.270020,133.861694 314.214844,143.325607 
	C310.786987,147.923813 306.199310,150.800888 301.479553,153.552750 
	C299.143494,154.914795 298.184418,156.468201 298.192810,159.092758 
	C298.239502,173.745819 298.287628,188.400436 298.106903,203.051712 
	C298.053070,207.415222 300.142578,208.453003 303.948029,208.399445 
	C325.525116,208.095779 347.103088,207.802292 368.681732,207.676804 
	C382.303894,207.597595 395.951050,206.909256 409.506927,209.210312 
	C413.485046,209.885605 414.674377,207.206039 414.663910,203.667984 
	C414.623932,190.172882 414.635071,176.677612 414.628357,163.182404 
	C414.617218,140.719772 414.597076,118.257126 414.604553,95.794487 
	C414.606079,91.132050 414.674957,86.486389 414.151245,81.825371 
	C413.356445,74.751701 415.175568,72.769730 422.171295,72.760139 
	C457.154236,72.712204 492.146576,73.187012 527.117188,72.517693 
	C552.449402,72.032845 577.780334,72.192749 603.110352,71.809021 
	C638.249451,71.276680 673.403259,71.743553 708.550781,71.727943 
	C734.504272,71.716415 760.471924,72.122108 786.406616,71.393463 
	C806.155273,70.838615 825.863159,72.137016 845.571472,71.590843 
	C856.824768,71.278976 868.120605,71.143036 879.337219,71.124092 
	C890.766052,71.104797 902.277405,71.654770 913.739014,71.584427 
	C932.019165,71.472237 950.309143,72.351700 968.582520,71.199829 
	C971.368042,71.024254 972.124878,73.087372 972.753784,75.266060 
	C973.846619,79.052032 973.010620,82.902328 972.950500,86.676468 
	C972.635803,106.406380 972.451538,126.137207 971.735596,145.866638 
	C971.165039,161.589615 972.149841,177.363815 972.208862,193.116150 
	C972.288513,214.370361 972.129822,235.625412 972.096619,256.880127 
	C972.063354,278.168640 972.029785,299.457275 972.048279,320.745789 
	C972.074707,351.201050 972.188660,381.656219 972.189392,412.111450 
	C972.189941,436.574738 972.286194,461.040894 971.950928,485.500427 
	C971.675781,505.572510 972.415771,525.631348 971.639832,545.723938 
	C970.886841,565.222107 972.389709,584.802307 971.809937,604.314026 
	C971.359802,619.464355 971.785095,634.601440 971.323059,649.734619 
	C971.154663,655.250977 969.473206,656.335266 963.977356,656.529785 
	C926.054626,657.871094 888.116943,656.869263 850.190125,657.359314 
	C825.885681,657.673279 801.581787,657.020142 777.270691,657.830383 
	C764.364807,658.260437 751.415222,657.269226 738.482910,657.087952 
	C734.960754,657.038574 731.548523,657.941406 729.136841,660.879028 
	C720.941956,670.860962 709.695557,676.242981 698.306946,681.428955 
	C696.084717,682.440918 693.005493,682.953613 692.784729,685.856934 
	C692.570618,688.672607 695.435852,689.803223 697.396851,691.279663 
	C697.660522,691.478271 697.984985,691.593872 698.262939,691.776123 
	C706.351624,697.076965 706.949524,698.630737 701.365051,706.452820 
	C692.864441,718.359497 683.920532,729.951233 675.094727,741.623718 
	C662.752808,757.946533 649.964722,773.948242 638.085327,790.599365 
	C628.152527,804.521912 616.838623,816.773743 601.454834,824.416138 
	C587.238220,831.478821 572.263733,831.840576 556.746033,828.302856 
	C537.216492,823.850525 525.383362,809.271179 512.080200,796.447632 
	C508.569794,793.063660 506.087341,788.482239 501.139801,786.604126 
	C498.481323,789.312256 499.413788,792.488586 499.390961,795.334839 
	C499.220154,816.619446 499.184174,837.905273 499.123016,859.190674 
	C499.061432,880.636963 499.307709,902.089539 498.836639,923.526550 
	C498.628540,932.996277 498.460266,942.434204 498.982605,951.885559 
	C499.202393,955.862793 498.134552,959.777832 498.634308,963.805969 
	C498.881897,965.801392 497.250183,967.236206 495.195129,967.413513 
	C489.592102,967.896851 483.975586,968.226501 478.362549,968.587524 
	C477.877716,968.618652 477.270538,968.583984 476.902283,968.322998 
	C468.810913,962.587524 460.055969,965.143494 451.265289,965.775635 
	C443.466278,966.336426 435.566467,965.394348 427.708710,965.266357 
	C418.954773,965.123840 410.210449,964.557556 401.439117,965.099487 
	C394.840576,965.507141 388.269104,963.983826 381.591248,964.736633 
	C379.023438,965.026184 376.395111,964.697876 373.775177,965.441895 
	C365.138092,967.894653 356.605286,963.924561 347.936890,964.868225 
	C343.146423,965.389832 338.142303,963.650513 333.598236,966.724182 
	C331.009308,968.475403 327.818848,967.214233 325.409332,966.568420 
	C319.609009,965.013733 313.964020,966.502319 308.449799,966.907715 
	C296.270599,967.803162 284.265839,966.461792 272.181183,966.170105 
	C262.921295,965.946655 253.511459,965.003601 244.340637,967.574707 
	C238.403351,969.239319 232.528961,967.201416 226.618286,967.090332 
	C216.836487,966.906555 207.284103,965.181213 197.387589,968.632141 
	C191.585388,970.655334 184.545044,969.312744 178.068176,969.175598 
	C166.630234,968.933289 155.220871,969.267273 143.808609,970.017029 
	C140.690277,970.221924 137.529495,969.784668 134.388382,969.638367 
	C128.488281,969.363586 122.662987,971.131592 116.172752,969.742065 
	C113.999100,967.581726 114.673004,964.143433 114.813210,960.878418 
	C115.291115,949.749146 115.834770,938.622559 116.402176,927.497498 
	C116.586876,923.876282 116.637047,920.212402 117.265739,916.659546 
	C117.918449,912.971069 116.093010,911.755920 113.114845,910.518616 
	C106.737358,907.868958 99.769409,908.128418 93.270767,905.754272 
	C80.223503,900.987610 70.152344,893.084045 62.816795,881.264038 
	C57.076855,872.015015 51.090561,862.766968 50.180992,851.756531 
	C49.278912,840.836792 48.585163,829.862549 48.692074,818.845459 
	C48.935448,793.765930 49.942207,768.704651 49.859863,743.612732 
	C49.777115,718.397583 50.244469,693.159546 51.356937,667.970642 
	C51.903542,655.594238 55.392723,643.532654 58.968357,631.594177 
	C65.547333,609.628235 77.450157,591.358887 95.316010,576.929749 
	C109.503830,565.471191 125.986153,558.845154 142.817612,552.276245 
	C161.910034,544.824890 181.610519,543.501953 201.526352,542.463074 
	C205.373734,542.262329 206.699081,540.832947 207.207932,537.230774 
	C208.031265,531.402222 207.443237,525.588135 207.623413,519.772888 
	C207.750626,515.667114 204.598480,515.548767 201.719193,515.396362 
	C193.791550,514.976746 185.815628,515.042053 177.937881,514.186951 
	C153.940109,511.582001 135.058258,500.909424 125.425026,477.846436 
	C120.790932,466.751953 119.042732,454.791107 120.016190,442.617340 
	C120.709206,433.950806 119.063362,432.357849 110.118240,432.938995 
	C109.455711,432.982025 108.796089,433.070068 107.702232,433.134583 
M776.568848,637.642517 
	C784.399048,637.801147 792.203186,637.038269 800.010559,636.868774 
	C816.810730,636.503967 833.624207,636.780151 850.432190,636.743042 
	C869.242432,636.701538 888.054749,636.428345 906.859253,636.345032 
	C919.617371,636.288452 932.367676,636.079712 945.122314,635.889221 
	C949.127869,635.829407 950.712708,634.248047 950.747375,630.188293 
	C950.850891,618.070801 951.462524,605.955994 951.471069,593.839783 
	C951.490906,565.618591 951.148499,537.402344 951.496033,509.175018 
	C952.062500,463.163391 951.520996,417.146454 951.034119,371.131500 
	C950.786926,347.764984 951.521423,324.389832 951.520386,301.018585 
	C951.518982,268.383698 951.933716,235.751465 951.285278,203.110962 
	C950.900146,183.729797 952.140137,164.331375 951.733276,144.920670 
	C951.408997,129.451630 951.652161,113.969666 951.733704,98.493904 
	C951.753296,94.772217 950.933594,91.577637 946.729309,91.173378 
	C941.277222,90.649117 935.771545,90.430679 930.292908,90.484375 
	C916.694641,90.617645 903.080261,91.538498 889.507080,91.089752 
	C876.560608,90.661713 863.627136,90.761055 850.700623,90.875732 
	C821.987854,91.130463 793.279663,91.704292 764.561951,91.387810 
	C734.475342,91.056252 704.395020,91.717010 674.311707,92.095016 
	C648.702087,92.416809 623.084717,92.121407 597.470825,92.110916 
	C567.705688,92.098732 537.940491,92.061745 508.175476,92.107323 
	C487.021820,92.139709 465.868317,92.278275 444.714905,92.397568 
	C439.003784,92.429771 437.010681,94.115410 437.010712,99.153885 
	C437.010803,121.434753 437.095978,143.715607 437.132904,165.996490 
	C437.157654,180.934250 437.746307,195.907440 436.857788,210.791672 
	C436.521973,216.417664 438.098450,219.228043 442.098145,222.371063 
	C454.817505,232.366196 463.802979,244.911087 466.133057,261.316895 
	C468.188629,275.789520 468.479736,290.422302 469.239471,304.996368 
	C469.913696,317.929779 469.597717,317.946259 482.794891,317.006012 
	C488.293823,316.614197 490.232269,318.418152 490.723389,323.921753 
	C491.503265,332.661194 490.621216,341.398987 490.677002,350.134979 
	C490.802765,369.835907 489.789062,389.542450 489.355499,409.249268 
	C489.090210,421.306610 489.187164,421.308746 476.996552,421.316376 
	C471.280945,421.319946 470.405914,422.249573 470.247009,427.954742 
	C469.885773,440.926056 469.447205,453.895172 469.050415,466.865509 
	C468.620483,480.917480 463.950745,492.880371 452.135162,501.349152 
	C448.496796,503.956909 447.324432,507.968292 447.726593,511.930237 
	C448.604736,520.580566 448.120941,529.224487 448.340302,537.865479 
	C448.427307,541.294678 449.623749,543.409546 452.926910,544.695496 
	C471.978882,552.112549 488.370758,563.449280 502.474304,578.254272 
	C510.908569,587.108093 517.194275,597.565735 524.593567,607.182922 
	C530.152344,614.407959 535.620972,621.780640 540.708130,629.364319 
	C548.959778,641.665527 557.916199,653.437927 566.784790,665.277649 
	C569.870178,669.396790 571.792053,669.339478 574.989807,665.327332 
	C584.212952,653.755249 593.410767,642.160034 602.407104,630.411987 
	C604.856384,627.213501 607.035889,625.011414 611.496094,626.500305 
	C614.155762,627.388184 616.535278,626.470642 616.568787,622.935547 
	C616.642944,615.106873 617.744873,607.370544 618.659485,599.617920 
	C620.589600,583.256836 627.055969,569.437012 640.448608,559.133484 
	C647.173401,553.959778 654.751770,550.158081 661.304321,544.649780 
	C677.196838,531.290100 689.304932,514.428711 703.834595,499.823700 
	C709.769287,493.858246 714.706909,486.913330 720.443726,480.734894 
	C725.790710,474.976288 733.734131,473.766968 740.613464,477.035004 
	C746.402283,479.785004 748.885010,485.310394 748.466187,493.401550 
	C748.247192,497.633331 746.735413,501.353912 744.203003,504.397522 
	C733.784119,516.919556 724.213257,530.170593 712.515259,541.605713 
	C707.891052,546.126038 708.156311,547.437805 713.953979,550.691650 
	C722.711243,555.606628 728.743469,562.921143 732.000610,572.340149 
	C732.962891,575.122986 734.277527,576.897461 736.916565,578.092529 
	C749.846252,583.947510 755.954407,594.114990 755.383484,608.222839 
	C755.066650,616.049805 754.061584,623.775757 751.140503,631.165161 
	C750.112305,633.765991 748.789001,637.358154 753.696899,637.141479 
	C761.030823,636.817627 768.300476,637.791565 776.568848,637.642517 
M282.500549,493.689880 
	C323.904236,493.810760 365.307159,493.820282 406.704132,492.890167 
	C414.791718,492.708435 422.505859,490.850464 429.869232,487.589355 
	C441.724182,482.339020 445.568451,471.385712 448.592865,460.197723 
	C452.243256,446.694153 452.154663,432.823608 452.138336,418.899933 
	C452.116516,400.301056 451.310455,381.740234 450.792206,363.164032 
	C450.134064,339.572693 449.338104,315.983643 448.916107,292.387970 
	C448.751770,283.199310 448.377716,274.142365 445.643433,265.281250 
	C438.932373,243.532288 422.360931,234.089935 403.746063,232.777222 
	C391.850433,231.938370 379.855835,232.402954 367.906219,232.449188 
	C335.693604,232.573837 303.480957,232.742783 271.268982,232.983948 
	C254.303329,233.110947 237.339661,233.537125 220.374039,233.622223 
	C205.382294,233.697418 191.221466,235.926208 180.013443,247.182602 
	C172.200623,255.029099 166.242645,263.866211 165.182678,275.225952 
	C163.124893,297.279694 164.637314,319.386169 164.418976,341.467133 
	C164.320557,351.421448 165.089890,361.383179 165.040543,371.339447 
	C164.944244,390.769806 164.152420,410.204315 164.425949,429.626129 
	C164.590469,441.306519 164.102020,453.126953 168.235229,464.534149 
	C174.836868,482.753876 189.223511,493.570496 208.570984,493.683807 
	C232.879959,493.826141 257.190460,493.706390 282.500549,493.689880 
M215.515381,564.263428 
	C196.389252,564.260742 177.152206,563.389160 159.122452,571.729004 
	C157.339111,572.553955 154.949738,572.693176 154.498886,575.023621 
	C153.992798,577.639587 156.535355,578.265869 158.111893,579.203308 
	C172.040741,587.485107 179.820343,600.881531 185.523148,615.024719 
	C189.479965,624.837830 192.017136,635.463501 192.517807,646.497253 
	C193.158051,660.606812 193.451065,674.691040 193.336960,688.803467 
	C193.236038,701.286072 193.327118,713.770142 193.304962,726.253540 
	C193.297073,730.697510 194.240417,733.871704 199.770599,734.318970 
	C203.030151,734.582520 206.010941,733.664856 209.162109,733.686340 
	C223.641022,733.785217 238.121231,733.682495 252.600998,733.671082 
	C282.740753,733.647461 312.880859,733.721313 343.020172,733.594727 
	C371.765747,733.473938 400.510284,733.121826 429.255676,732.926880 
	C442.251068,732.838745 455.248199,732.965759 468.242981,732.836426 
	C474.783661,732.771362 475.632904,731.618774 475.629364,725.198242 
	C475.615601,700.049011 475.834961,674.898499 475.644226,649.750916 
	C475.519440,633.300293 476.976227,616.762390 473.685150,600.436340 
	C470.736572,585.809570 463.346558,574.368103 449.890045,567.207825 
	C440.869812,562.408142 431.050293,561.868958 421.236145,561.907532 
	C384.949677,562.050232 348.678772,563.080627 312.402466,563.935852 
	C280.453735,564.689087 248.476059,564.213196 215.515381,564.263428 
M132.083984,828.819946 
	C133.896286,825.267029 134.390915,821.237122 136.448822,817.711243 
	C138.102615,814.877869 136.922546,812.995911 133.323898,813.014465 
	C128.522888,813.039246 123.719582,812.782837 118.919937,812.846985 
	C115.027687,812.899109 112.512840,811.909302 112.672394,807.303650 
	C112.862625,801.812683 112.632866,796.308350 112.728165,790.812317 
	C112.769943,788.402954 113.158684,786.199768 116.514488,786.103088 
	C130.449341,785.701843 144.377472,784.993347 158.314056,784.768433 
	C162.934067,784.693787 164.700775,783.259521 165.084930,778.491943 
	C166.542618,760.401733 164.922516,742.311218 165.547867,724.216553 
	C166.168915,706.246216 165.742279,688.240601 165.828979,670.250671 
	C165.901794,655.143188 165.827667,640.244873 160.807587,625.505127 
	C156.458405,612.735291 148.376404,604.171204 137.077484,597.958496 
	C134.942719,596.784790 132.438995,596.425964 129.841782,596.477783 
	C120.431824,596.665649 114.074104,601.938171 107.543236,608.056091 
	C96.049568,618.822998 89.699806,632.210938 85.093422,646.787292 
	C82.760437,654.169800 83.153717,661.915649 81.995659,669.404846 
	C80.361359,679.973816 79.467064,690.540161 79.429230,701.148376 
	C79.271217,745.457336 79.420341,789.767212 79.401367,834.076782 
	C79.395500,847.778015 83.555069,860.088257 92.589485,870.271667 
	C100.061142,878.693542 108.654808,885.827393 121.016792,885.771118 
	C124.635612,885.754639 125.982803,884.556702 125.818657,880.737732 
	C125.072601,863.380249 125.991631,846.177795 132.083984,828.819946 
M474.508453,793.585083 
	C474.606110,782.468567 474.722260,771.352112 474.791779,760.235413 
	C474.817352,756.147644 472.340454,754.995361 468.658936,754.737366 
	C457.701752,753.969421 446.782135,755.109497 435.842651,755.184570 
	C407.924103,755.376099 380.003387,755.287415 352.086578,756.135925 
	C332.153137,756.741699 312.197174,756.623718 292.250946,756.786377 
	C261.350922,757.038452 230.450806,757.322571 199.550217,757.411011 
	C194.987213,757.424072 193.145020,759.170715 193.213486,763.571838 
	C193.314499,770.065063 193.322861,776.560730 193.272293,783.054626 
	C193.244278,786.653259 194.641953,788.525391 198.468353,788.873169 
	C222.577423,791.064209 246.676056,793.371521 270.773468,795.688843 
	C280.702271,796.643677 290.626678,797.656738 300.536041,798.791626 
	C302.498627,799.016479 305.613525,798.756714 305.581818,801.589111 
	C305.521881,806.945374 308.167450,805.941040 311.326691,804.668274 
	C323.035583,799.951233 334.766174,795.285095 347.169250,792.647705 
	C368.786224,788.051025 389.476990,790.479736 407.604279,803.489868 
	C417.887543,810.870239 424.652863,824.291260 418.850433,836.704773 
	C416.487366,841.760193 417.554688,845.193481 420.179688,849.824219 
	C427.359406,862.489746 427.118835,870.127869 418.706421,877.833008 
	C413.764496,882.359375 414.123535,886.591980 415.192017,891.840637 
	C415.929535,895.463562 417.641785,896.930420 421.677582,896.813782 
	C436.397217,896.388428 451.129669,896.347351 465.857727,896.298889 
	C473.442780,896.273926 474.899475,894.762390 474.120392,887.091309 
	C473.935913,885.275330 473.872528,883.438843 473.882812,881.612549 
	C474.047028,852.512268 474.232300,823.412109 474.508453,793.585083 
M545.829529,675.612061 
	C532.000610,655.654297 518.519043,635.431213 502.446564,616.898254 
	C499.465576,619.680237 500.079010,622.318787 499.946167,624.697449 
	C499.485931,632.939880 500.084869,641.211060 499.860077,649.426880 
	C499.246674,671.846252 499.239777,694.258179 499.327362,716.677185 
	C499.337494,719.269531 499.652405,721.624939 501.553345,723.575012 
	C512.123230,734.418030 520.762024,746.898865 531.019653,758.045532 
	C542.182434,770.175781 553.608093,782.014648 565.426941,793.486328 
	C569.433167,797.374756 573.877380,800.507019 579.923218,800.112122 
	C589.512024,799.485840 597.834595,796.043396 605.478210,790.115540 
	C611.526733,785.424561 615.653259,779.176147 620.543762,773.587402 
	C637.518616,754.188904 652.708069,733.348511 668.555969,713.038696 
	C674.863525,704.955261 672.667297,705.421814 666.730957,700.767883 
	C649.448059,687.218811 632.055481,673.809509 614.788513,660.240295 
	C611.038574,657.293396 608.235840,657.978271 605.520203,661.515869 
	C597.830566,671.532776 590.128662,681.540833 582.358948,691.495667 
	C571.509521,705.396301 560.589417,719.241821 549.710510,733.119446 
	C547.043823,736.521301 543.988098,737.048950 540.768616,734.089661 
	C538.335815,731.853333 535.938660,729.690308 532.997314,728.067688 
	C531.454346,727.216492 530.339233,725.693604 531.999878,723.527222 
	C539.283936,714.025208 544.481689,703.095093 552.144470,693.851257 
	C554.378967,691.155762 554.663513,688.594116 552.662720,685.709656 
	C550.483337,682.567627 548.384155,679.369812 545.829529,675.612061 
M271.846771,827.448181 
	C273.443665,820.601807 273.235504,820.254822 266.319458,818.854126 
	C264.859985,818.558472 263.369415,818.391663 261.885254,818.246704 
	C250.302673,817.116150 238.695572,816.198242 227.139511,814.843872 
	C209.139069,812.734253 191.048340,811.717163 173.031250,809.990356 
	C165.463058,809.264954 162.537369,812.348816 160.124557,818.056702 
	C159.867065,818.665894 159.607391,819.275574 159.314514,819.868164 
	C152.706009,833.238647 150.385376,847.630310 149.536911,862.298157 
	C149.133499,869.271973 149.308365,876.291016 149.495117,883.282288 
	C149.590118,886.838867 150.379013,891.369568 154.562637,891.317993 
	C162.943054,891.214600 171.053253,892.830811 179.283524,893.645447 
	C198.462372,895.543884 217.642471,897.430298 236.826004,899.280518 
	C242.104889,899.789673 247.392181,900.400940 252.685608,900.519836 
	C258.684021,900.654724 259.993408,899.258789 260.678467,893.427856 
	C261.356476,887.656921 261.966675,881.876160 262.764618,876.121582 
	C264.996826,860.024048 266.070221,843.706360 271.846771,827.448181 
M363.460480,910.127930 
	C371.147308,910.452759 378.093872,907.681885 385.029785,904.918945 
	C388.678162,903.465576 390.944183,900.483032 390.171906,896.782288 
	C389.371094,892.944763 385.608459,892.487549 382.110260,892.381653 
	C372.982819,892.105286 363.849945,891.898254 354.733521,891.400940 
	C345.548248,890.899902 345.191956,890.368286 345.911255,881.488708 
	C346.031586,880.003662 346.558075,878.535339 346.556915,877.059570 
	C346.552734,871.736694 349.434601,870.450256 354.284424,870.553711 
	C366.426025,870.812744 378.576111,870.702637 390.722717,870.683044 
	C396.238770,870.674194 401.015564,867.177490 401.490997,862.952881 
	C401.911438,859.216553 397.815094,854.649292 392.755768,853.430603 
	C385.922577,851.784546 379.022003,851.182190 371.972290,851.874573 
	C366.685059,852.393921 361.339783,852.750122 356.061615,851.547058 
	C354.965210,851.297119 353.395905,851.637451 352.971680,850.348877 
	C351.158752,844.841797 350.651703,839.096008 352.868561,833.731628 
	C354.509003,829.762146 358.978424,830.646973 362.175629,830.877808 
	C372.629669,831.632690 383.093414,831.436829 393.546783,831.803406 
	C395.691711,831.878540 398.148071,832.492004 399.331116,830.084961 
	C400.497223,827.712402 400.035522,825.184204 398.688965,822.920898 
	C396.341339,818.974976 392.405884,817.126770 388.454407,815.301453 
	C375.366913,809.255859 361.692902,810.639893 348.249023,812.927979 
	C332.994019,815.524231 319.607056,823.218994 306.174133,830.510803 
	C304.459717,831.441406 303.863037,833.025574 303.210663,834.854004 
	C301.289185,840.239624 302.898895,845.755737 302.173370,851.132263 
	C300.355164,864.606323 298.524475,878.085510 295.576172,891.375183 
	C294.572021,895.901306 295.975433,898.656128 300.700043,899.883850 
	C307.602356,901.677612 314.406738,903.847534 321.256226,905.845581 
	C334.796753,909.795532 348.661469,910.720154 363.460480,910.127930 
M666.246887,600.019409 
	C666.046265,599.562439 665.834045,599.110168 665.646790,598.647827 
	C661.382935,588.121582 662.863220,585.434021 673.741638,583.344421 
	C680.971741,581.955627 687.985718,579.812317 693.811768,575.068176 
	C696.327942,573.019226 698.352417,570.179993 697.040588,566.788452 
	C695.709473,563.346863 693.667236,560.569580 689.033325,560.568787 
	C681.659180,560.567566 674.567566,561.916504 667.380310,563.298584 
	C652.405945,566.178101 642.795837,574.556946 638.279053,589.170471 
	C633.318726,605.218750 634.591675,621.707886 634.391724,638.082825 
	C634.327148,643.374634 639.321838,646.281860 644.577942,644.921631 
	C648.384460,643.936462 651.271057,641.275024 654.764954,639.729919 
	C665.567627,634.952332 674.365234,611.348389 666.246887,600.019409 
M138.597122,350.547058 
	C138.164230,345.070435 136.981064,339.733826 135.722443,334.398590 
	C132.970947,322.734985 133.015594,322.724487 121.236679,323.347290 
	C115.127861,323.670288 113.662453,325.440399 115.820343,331.158203 
	C118.984879,339.543335 119.882721,348.247192 120.220848,357.040100 
	C120.854988,373.530365 119.206795,389.893951 116.733673,406.164032 
	C116.092354,410.383148 117.193100,412.213104 121.490044,411.965942 
	C122.981285,411.880188 124.482849,411.990631 125.979416,411.978088 
	C133.555801,411.914612 134.111298,411.346375 135.907547,403.848389 
	C140.056946,386.527588 140.830490,369.051819 138.597122,350.547058 
M405.496857,539.731323 
	C410.815033,539.686768 416.136139,539.733459 421.450195,539.561768 
	C424.421783,539.465881 426.619110,538.105896 426.677826,534.756531 
	C426.756470,530.269409 426.894257,525.770386 426.655334,521.295288 
	C426.499084,518.368286 425.483246,515.375549 421.829376,515.419678 
	C410.730042,515.553711 399.633301,515.919189 388.536530,516.229675 
	C385.666168,516.309875 384.369904,517.968811 384.382019,520.750244 
	C384.400848,525.074036 384.387665,529.398804 384.473511,533.721436 
	C384.574463,538.803040 386.497955,540.581787 391.576996,540.372009 
	C395.889404,540.193909 400.199768,539.967407 405.496857,539.731323 
M271.457733,127.691582 
	C274.683624,135.791504 281.724335,138.474487 290.012329,134.762131 
	C297.119080,131.578873 300.394104,125.046997 298.298157,118.236351 
	C296.516449,112.446945 289.060272,108.702415 282.121185,110.112213 
	C274.079468,111.746025 270.782104,116.882347 271.457733,127.691582 
M735.603271,613.769287 
	C735.596313,609.693726 736.747864,605.475464 734.179199,601.710022 
	C732.338989,599.012390 730.552124,598.715210 728.393372,601.553406 
	C723.786865,607.609680 719.052307,613.569824 714.296570,619.510437 
	C713.020569,621.104370 711.537109,622.561890 712.676758,624.775513 
	C713.781799,626.921814 715.751892,627.529480 718.062805,627.672546 
	C726.703796,628.207581 732.070679,624.199097 735.603271,613.769287 
M694.184814,605.261780 
	C699.598083,609.061218 702.457397,609.448792 705.973755,605.516479 
	C710.156677,600.838684 713.861755,595.642700 715.410522,589.360352 
	C715.749023,587.987122 715.628113,586.342102 715.215698,584.973877 
	C714.200745,581.607117 711.800903,580.937622 709.497314,583.536560 
	C704.216187,589.494812 697.789429,593.668396 690.373047,596.370972 
	C690.435059,599.760071 691.993591,602.281067 694.184814,605.261780 
z"/>
<path fill="#000000" opacity="1.000000" stroke="none" 
	d="
M484.667114,240.217636 
	C485.850281,213.746155 497.136871,192.603012 516.258789,175.406540 
	C526.305298,166.371628 537.322937,158.776260 550.010498,153.717209 
	C566.359314,147.198288 583.154175,147.795013 600.120605,149.894379 
	C613.199280,151.512711 625.397949,156.385330 636.474426,162.803192 
	C656.882507,174.627899 670.877319,191.955139 677.382141,215.301529 
	C682.721375,234.464630 683.620361,253.619629 678.883911,272.643616 
	C675.238281,287.286102 669.037292,300.957520 657.480225,311.822296 
	C650.620605,318.270996 644.974304,326.036987 637.015686,331.361603 
	C620.789001,342.218048 602.630005,346.665863 583.362732,347.736877 
	C563.364136,348.848572 545.921143,342.218140 529.478638,331.461853 
	C516.075562,322.693878 505.329071,311.350922 497.871796,297.515747 
	C488.402649,279.948029 482.605286,261.090851 484.667114,240.217636 
M593.372192,208.346695 
	C594.665405,216.432678 593.828918,224.626114 594.578674,232.722092 
	C594.943298,236.659134 594.049133,240.931351 597.713440,244.292145 
	C606.288452,252.156921 614.524780,260.389557 623.001343,268.363647 
	C630.742981,275.646301 638.607666,282.798492 646.446472,289.977264 
	C648.388428,291.755676 650.645081,292.682831 652.298828,289.851349 
	C655.732239,283.972778 659.520325,278.149475 660.566223,271.268677 
	C662.642944,257.606628 663.617249,243.965210 660.489441,230.226868 
	C658.134033,219.881516 654.617065,209.965439 648.489563,201.467651 
	C643.977417,195.210114 638.016541,189.873123 632.168701,184.731522 
	C623.081055,176.741348 611.888123,172.841934 600.248230,170.430206 
	C594.835083,169.308609 593.305481,171.011963 593.307007,176.471008 
	C593.309937,186.798065 593.338806,197.125107 593.372192,208.346695 
z"/>
<path fill="#000000" opacity="1.000000" stroke="none" 
	d="
M918.091675,367.725647 
	C918.191345,391.802612 918.239380,415.441193 918.287537,439.079742 
	C918.287903,439.246368 918.291382,439.413025 918.289917,439.579620 
	C918.183472,451.436462 916.562805,452.779266 904.971863,451.998810 
	C893.394653,451.219299 881.794189,451.680756 870.198608,451.928070 
	C859.912964,452.147461 849.619446,451.983124 839.329529,452.022339 
	C817.375977,452.105927 795.421387,452.389038 773.469360,452.250519 
	C756.829346,452.145508 740.175964,452.980591 723.547852,451.747986 
	C721.253357,451.577881 718.968018,451.282135 716.673035,451.122070 
	C714.676025,450.982758 714.259155,449.494720 714.077026,448.006287 
	C713.815002,445.864532 713.695923,443.693054 713.691895,441.533936 
	C713.660217,424.372284 713.645935,407.210480 713.678040,390.048828 
	C713.692749,382.167084 715.195923,380.907135 722.927429,380.576050 
	C734.857300,380.065186 746.807129,381.117401 758.720886,379.993317 
	C763.507019,379.541718 765.294189,381.906036 765.278564,386.469757 
	C765.229187,400.964142 765.293640,415.459045 765.355164,429.953583 
	C765.381775,436.211029 766.057556,436.836090 772.247864,436.803894 
	C784.364868,436.740845 784.784363,435.492401 784.282043,423.355194 
	C783.692810,409.115417 784.578857,394.818634 784.663635,380.545624 
	C784.731934,369.052673 784.534668,357.558289 784.518860,346.064484 
	C784.516113,344.079041 784.494873,341.987000 785.081299,340.133850 
	C785.842773,337.727783 787.266479,335.968018 790.419067,335.938843 
	C803.496216,335.817810 816.571106,335.451904 829.646606,335.162659 
	C830.811096,335.136871 831.976868,334.916321 833.136353,334.955475 
	C839.701721,335.177124 841.273987,336.875732 840.795105,343.483063 
	C839.843384,356.614044 840.844299,369.760864 840.393982,382.893005 
	C839.864990,398.320740 841.924011,413.740753 840.424500,429.177399 
	C839.961609,433.941681 842.267822,436.433502 847.052490,436.562897 
	C850.343201,436.651886 853.679016,436.517975 856.935242,436.060699 
	C860.777405,435.521179 860.628235,432.204559 860.652832,429.431000 
	C860.761719,417.104675 860.719849,404.777161 860.757812,392.450104 
	C860.837708,366.497253 861.141479,340.542816 860.939697,314.592255 
	C860.829834,300.464172 860.503601,286.347778 861.509399,272.021210 
	C867.322998,268.296387 874.108276,269.194519 880.644836,269.159393 
	C890.575928,269.105988 900.508789,269.516937 910.441956,269.656921 
	C917.246338,269.752777 918.196533,270.528992 918.224609,277.392883 
	C918.296753,295.049011 918.294861,312.705688 918.262390,330.362000 
	C918.239746,342.670532 918.117676,354.978821 918.091675,367.725647 
z"/>
<path fill="#000000" opacity="1.000000" stroke="none" 
	d="
M827.140625,281.036499 
	C823.756042,286.200928 819.704651,290.412567 816.636719,295.402069 
	C814.263977,299.261139 810.183411,297.636871 807.304138,296.499237 
	C803.358948,294.940369 799.578308,292.754395 796.077271,290.123962 
	C787.592957,283.749390 778.125671,278.914368 769.018982,273.523071 
	C765.493591,271.436005 762.242188,271.666321 759.405640,275.345795 
	C753.728271,282.710358 747.879822,289.951355 741.891785,297.066498 
	C725.088684,317.032166 709.301270,337.807617 692.981689,358.158234 
	C690.588013,361.143219 688.315491,364.231049 686.102295,367.353088 
	C684.484558,369.635223 682.938477,369.603546 680.680481,368.087616 
	C675.865540,364.855042 673.486145,359.484161 669.327515,355.663879 
	C667.411255,353.903534 669.789612,352.404419 670.884521,351.106415 
	C685.135498,334.210938 699.676453,317.564087 713.190247,300.048279 
	C725.776794,283.734375 738.681824,267.665222 751.540039,251.562973 
	C753.390076,249.246246 755.684998,247.258530 757.918945,245.282303 
	C760.034729,243.410629 762.315247,243.358948 764.764587,244.978378 
	C777.390686,253.326431 790.937134,260.218903 803.188416,269.154266 
	C806.904480,271.864563 809.349609,270.338043 811.485474,267.204315 
	C815.515930,261.290955 819.782654,255.511215 823.411804,249.357803 
	C829.492432,239.047668 836.833130,229.577789 842.814514,219.194473 
	C851.189575,204.655975 861.305420,191.189178 869.586487,176.574234 
	C870.565308,174.846863 871.895691,173.320267 873.043152,171.686569 
	C875.674438,167.940521 874.929199,165.586319 870.669739,164.222946 
	C866.593323,162.918228 862.520447,161.600174 858.423157,160.363495 
	C855.193604,159.388702 853.214844,157.106613 852.952209,153.963943 
	C852.705017,151.005753 855.776794,150.583374 857.764709,149.646133 
	C872.031799,142.919708 886.307983,136.209549 900.665833,129.680206 
	C904.731140,127.831467 909.063782,126.561020 913.300415,125.102478 
	C915.354614,124.395287 916.661560,125.002502 917.504333,127.247826 
	C918.534912,129.993408 918.738281,132.904953 918.654785,135.606827 
	C918.126221,152.707367 917.238953,169.796722 916.502869,186.891174 
	C916.438721,188.380295 916.464478,189.903122 916.700867,191.369598 
	C917.330933,195.278564 915.406555,197.315781 911.898071,198.283936 
	C907.960327,199.370529 906.005554,197.299347 904.812378,193.884293 
	C902.912842,188.447845 900.940979,183.036697 898.106689,177.340195 
	C872.360840,210.509857 849.833923,245.613464 827.140625,281.036499 
z"/>
<path fill="#000000" opacity="1.000000" stroke="none" 
	d="
M576.012207,408.286652 
	C559.233276,408.983154 542.915710,407.598572 526.644592,409.072296 
	C521.964722,409.496124 519.895081,407.114807 519.755615,402.660522 
	C519.750366,402.494080 519.757874,402.327179 519.751404,402.160797 
	C519.254944,389.333588 519.909241,388.683624 532.496826,388.701996 
	C568.297546,388.754303 604.098267,388.766693 639.898987,388.802856 
	C649.622253,388.812683 654.367615,395.638550 651.076172,404.881439 
	C649.938843,408.075439 647.159058,408.128662 644.460205,408.143341 
	C629.802673,408.223083 615.145081,408.278259 600.487366,408.315460 
	C592.494141,408.335754 584.500854,408.303711 576.012207,408.286652 
z"/>
<path fill="#000000" opacity="1.000000" stroke="none" 
	d="
M650.026855,440.533508 
	C650.557617,442.129395 651.054077,443.370697 651.373901,444.655945 
	C652.940369,450.950592 648.956970,455.782043 642.642578,455.068909 
	C633.371704,454.021973 624.107788,455.080017 614.842041,455.029388 
	C597.276611,454.933350 579.712708,455.164734 562.142334,454.865936 
	C550.756104,454.672302 539.348389,454.108704 527.955444,454.943176 
	C521.799011,455.394135 519.611267,453.167175 520.218750,447.125885 
	C521.361694,435.759705 521.361694,435.822571 532.967224,435.820496 
	C566.903320,435.814423 600.839417,435.736877 634.775513,435.736359 
	C638.748230,435.736298 642.721802,436.183960 646.693420,436.160492 
	C649.728088,436.142548 649.438049,438.385193 650.026855,440.533508 
z"/>
<path fill="#000000" opacity="1.000000" stroke="none" 
	d="
M837.242371,511.991821 
	C859.331421,511.860474 880.952087,511.736633 902.572388,511.566711 
	C905.225708,511.545837 907.882263,511.339386 910.528198,511.111938 
	C915.726990,510.664978 917.225891,511.939301 917.357422,517.073242 
	C917.412842,519.234802 917.488708,521.396729 917.495605,523.558655 
	C917.516479,530.108093 915.558594,531.339905 908.986450,531.534485 
	C888.894043,532.129150 868.800903,532.148621 848.706482,532.262268 
	C836.227722,532.332886 823.748657,532.372253 811.269775,532.413818 
	C807.792480,532.425354 805.288513,531.671692 806.457336,527.190369 
	C807.128479,524.617249 805.634399,522.067383 806.044678,519.303162 
	C806.750977,514.545349 808.803955,512.278992 813.872070,512.448120 
	C821.501099,512.702637 829.163635,513.212524 837.242371,511.991821 
z"/>
<path fill="#000000" opacity="1.000000" stroke="none" 
	d="
M557.799194,479.204163 
	C571.959900,478.533905 585.740601,480.547485 599.453857,478.776886 
	C604.852661,478.079803 606.966187,480.591949 607.921265,485.413605 
	C608.635315,489.018311 608.029480,492.541687 606.991394,495.736786 
	C605.593628,500.039001 600.933044,498.997955 597.848389,498.970337 
	C574.285095,498.759613 550.750977,499.585205 527.210693,500.320007 
	C518.980042,500.576935 518.777100,500.280396 518.754333,492.159607 
	C518.719238,479.649872 518.719543,479.700836 531.418396,479.630066 
	C540.073608,479.581818 548.727905,479.366425 557.799194,479.204163 
z"/>
<path fill="#000000" opacity="1.000000" stroke="none" 
	d="
M211.339249,338.701569 
	C213.526672,325.127686 218.924088,313.849762 230.213425,306.159454 
	C248.373123,293.789093 276.058746,298.287689 287.535889,317.545715 
	C296.185944,332.060059 298.618469,347.223175 292.780212,363.260681 
	C290.026917,370.823761 284.605591,376.758392 278.059326,381.003357 
	C260.837128,392.171143 240.441055,391.126190 225.831100,378.136780 
	C214.348206,367.927490 209.755310,354.506775 211.339249,338.701569 
z"/>
<path fill="#000000" opacity="1.000000" stroke="none" 
	d="
M396.403381,385.381592 
	C380.919189,387.045319 368.604919,381.993591 359.194580,370.089661 
	C347.669800,355.510895 347.193298,331.002716 357.845093,315.832642 
	C371.671478,296.141327 407.975555,292.048401 423.474365,316.584198 
	C435.324860,335.344421 435.020294,358.316803 419.242371,374.821472 
	C413.211884,381.129730 405.691620,384.825256 396.403381,385.381592 
z"/>
<path fill="#000000" opacity="1.000000" stroke="none" 
	d="
M290.231689,445.419373 
	C287.182739,445.466583 284.451630,445.133301 281.884033,445.635559 
	C277.132294,446.565186 275.494263,444.103851 275.038788,440.099731 
	C274.776794,437.796631 274.590851,435.449402 274.727539,433.143127 
	C275.125671,426.424622 277.714264,423.886780 284.464996,423.810638 
	C297.563080,423.662964 310.663788,423.749268 323.761902,423.603119 
	C335.845154,423.468231 347.925659,423.065002 360.008911,422.964722 
	C365.135132,422.922180 370.265961,423.336090 375.393341,423.572174 
	C378.169952,423.700043 379.924500,425.127716 381.051697,427.699829 
	C385.144257,437.038086 380.093597,445.184448 369.924133,445.230652 
	C343.490814,445.350800 317.056976,445.361450 290.231689,445.419373 
z"/>
</svg>